<svg width="40" height="40" viewBox="0 0 40 40" fill="none" xmlns="http://www.w3.org/2000/svg">
<path fill-rule="evenodd" clip-rule="evenodd" d="M38.3333 27.9565C38.3333 28.2542 38.4922 28.5293 38.75 28.6782C39.5222 29.1212 39.9988 29.943 40 30.8332V38.3332C40 39.2536 39.2538 39.9998 38.3333 39.9998C37.4129 39.9998 36.6667 39.2536 36.6667 38.3332V35.8332C36.6667 35.3729 36.2936 34.9998 35.8333 34.9998H4.16667C3.70643 34.9998 3.33333 35.3729 3.33333 35.8332V38.3332C3.33333 39.2536 2.58714 39.9998 1.66667 39.9998C0.746192 39.9998 0 39.2536 0 38.3332V30.8332C0.00118722 29.943 0.477849 29.1212 1.25 28.6782C1.50783 28.5293 1.66666 28.2542 1.66667 27.9565V12.4998C1.66667 10.6589 3.15905 9.1665 5 9.1665H11.6667C12.5871 9.1665 13.3333 9.9127 13.3333 10.8332C13.3333 11.7536 12.5871 12.4998 11.6667 12.4998H5.83333C5.3731 12.4998 5 12.8729 5 13.3332V24.2148C4.99494 24.3942 5.10477 24.5567 5.27302 24.619C5.44126 24.6812 5.63047 24.6293 5.74333 24.4898C6.2011 23.9695 6.77096 23.5598 7.41 23.2915C7.721 23.1622 7.92356 22.8583 7.92333 22.5215V20.6065C7.92029 19.6919 8.51688 18.8834 9.39167 18.6165C11.9449 17.7048 14.7351 17.7048 17.2883 18.6165C18.1631 18.8834 18.7597 19.6919 18.7567 20.6065V22.0832C18.7567 22.5434 19.1298 22.9165 19.59 22.9165H20.4233C20.8836 22.9165 21.2567 22.5434 21.2567 22.0832V20.6065C21.2536 19.6919 21.8502 18.8834 22.725 18.6165C25.2783 17.7048 28.0684 17.7048 30.6217 18.6165C31.4965 18.8834 32.093 19.6919 32.09 20.6065V22.5215C32.0898 22.8583 32.2923 23.1622 32.6033 23.2915C33.2424 23.5598 33.8122 23.9695 34.27 24.4898C34.3844 24.6204 34.5678 24.6663 34.7302 24.6051C34.8927 24.5439 35.0001 24.3884 35 24.2148V13.3332C35 12.8729 34.6269 12.4998 34.1667 12.4998H28.3333C27.4129 12.4998 26.6667 11.7536 26.6667 10.8332C26.6667 9.9127 27.4129 9.1665 28.3333 9.1665H35C36.841 9.1665 38.3333 10.6589 38.3333 12.4998V27.9565ZM30.8333 25.4165H9.16667C8.01683 25.4183 7.08517 26.35 7.08333 27.4998C7.08333 27.9601 7.45643 28.3332 7.91667 28.3332H32.0833C32.5436 28.3332 32.9167 27.9601 32.9167 27.4998C32.9148 26.35 31.9832 25.4183 30.8333 25.4165Z" fill="black"/>
<path d="M15.1047 12.7467C14.9121 13.2588 14.9832 13.833 15.2949 14.2827C15.6066 14.7325 16.1192 15.0005 16.6664 15H23.3331C23.8803 15.0005 24.3929 14.7325 24.7046 14.2827C25.0163 13.833 25.0873 13.2588 24.8947 12.7467L23.0197 7.74667C22.8646 7.34084 22.5538 7.01382 22.1564 6.83833C21.8579 6.70335 21.6661 6.40596 21.6664 6.07833V1.66667C21.6664 0.746192 20.9202 0 19.9997 0C19.0792 0 18.3331 0.746192 18.3331 1.66667V6.07833C18.3333 6.40596 18.1416 6.70335 17.8431 6.83833C17.4456 7.01382 17.1348 7.34084 16.9797 7.74667L15.1047 12.7467Z" fill="black"/>
</svg>
