<svg width="40" height="40" viewBox="0 0 40 40" fill="none" xmlns="http://www.w3.org/2000/svg">
<path d="M8.89494 16.2967C8.91094 16.3483 10.4309 21.2967 14.1205 21.2967H27.4757C31.1653 21.2967 32.6853 16.34 32.7013 16.2967C33.1688 14.7058 34.3386 13.4439 35.8485 12.9017C36.2552 12.7546 36.4772 12.2987 36.3509 11.87C36.2581 11.555 36.1797 11.27 36.1237 11.0617C35.9503 10.361 35.7273 9.67467 35.4565 9.00832C34.4684 6.95019 32.448 5.65104 30.2389 5.65333H11.3589C9.14925 5.65041 7.12809 6.94965 6.13974 9.00832C5.86897 9.67467 5.64596 10.361 5.47254 11.0617C5.40854 11.2667 5.32694 11.5483 5.23414 11.8583C5.10413 12.29 5.32856 12.7509 5.73974 12.8967C7.25527 13.4353 8.42946 14.7006 8.89494 16.2967Z" fill="black"/>
<path d="M38.2137 15.3334C36.8928 14.9195 35.4995 15.697 35.0985 17.0717C35.0153 17.3517 32.9993 23.9184 27.4777 23.9184H14.1209C8.59768 23.9184 6.58328 17.3517 6.50008 17.0717C6.10244 15.691 4.70557 14.9075 3.38008 15.3217C2.0546 15.7359 1.30244 17.191 1.70008 18.5717C1.80568 18.9434 4.05848 26.465 10.5721 28.5717C10.6895 28.6098 10.7836 28.7018 10.8276 28.8214C10.8716 28.941 10.8606 29.075 10.7977 29.185L9.34328 31.7084C8.86832 32.534 9.12584 33.6044 9.91848 34.0992C10.7111 34.594 11.7387 34.3257 12.2137 33.5L14.4985 29.5334C14.6434 29.2827 14.904 29.1296 15.1849 29.13H26.4121C26.693 29.1296 26.9535 29.2827 27.0985 29.5334L29.3849 33.5C29.6918 34.0327 30.2483 34.3542 30.8446 34.3436C31.4409 34.333 31.9864 33.9919 32.2758 33.4486C32.5651 32.9054 32.5542 32.2427 32.2473 31.71L30.7945 29.1867C30.7308 29.0772 30.719 28.9432 30.7625 28.8234C30.8069 28.7038 30.9011 28.6118 31.0185 28.5734C37.5337 26.465 39.7865 18.9434 39.8937 18.5734C40.2861 17.1957 39.5349 15.7469 38.2137 15.3334Z" fill="black"/>
</svg>
