<svg width="40" height="40" viewBox="0 0 40 40" fill="none" xmlns="http://www.w3.org/2000/svg">
<path fill-rule="evenodd" clip-rule="evenodd" d="M30.0008 5.98837C35.5214 5.99389 39.9953 10.4678 40.0008 15.9884C39.9964 20.1748 37.3886 23.9167 33.4625 25.37C33.1351 25.4908 32.9176 25.8027 32.9175 26.1517V30.5717C32.9157 33.1023 30.8647 35.1532 28.3342 35.155H18.3342C15.802 35.155 13.7486 33.1038 13.7458 30.5717V29.2167C13.7459 28.6556 13.6043 28.1035 13.3342 27.6117L4.24416 11.07C3.99764 10.6242 3.44419 10.451 2.98749 10.6767L2.40582 10.9634C1.58172 11.3642 0.588581 11.0246 0.182597 10.203C-0.223388 9.38137 0.110109 8.38613 0.929158 7.97504L6.90416 5.01171C7.43797 4.74763 8.07212 4.7884 8.56773 5.11865C9.06333 5.44891 9.3451 6.01848 9.30689 6.61282C9.26869 7.20716 8.91631 7.73596 8.38249 8.00004C8.11726 8.1295 7.9271 8.37468 7.86771 8.66379C7.80833 8.95289 7.88643 9.25318 8.07916 9.47671L13.0175 15.285C13.1308 15.4175 13.3145 15.4655 13.4781 15.4052C13.6417 15.345 13.7505 15.1893 13.7508 15.015V12.2384C13.7508 8.24504 18.9175 5.98837 22.9175 5.98837H30.0008ZM33.1335 21.6385C33.2667 21.7116 33.4292 21.7065 33.5575 21.625V21.6367C36.0667 20.052 37.2262 16.9996 36.4021 14.1486C35.5779 11.2977 32.9685 9.33479 30.0008 9.33337H25.3508C25.2196 9.33311 25.096 9.39491 25.0175 9.50004C24.9442 9.60421 24.9221 9.73601 24.9575 9.85838C25.598 12.0719 27.7031 13.5328 30.0008 13.3584C31.6102 13.3602 32.9147 14.664 32.9175 16.2734V21.2734C32.9175 21.4254 33.0003 21.5653 33.1335 21.6385Z" fill="black"/>
</svg>
