<svg width="40" height="40" viewBox="0 0 40 40" fill="none" xmlns="http://www.w3.org/2000/svg">
<path d="M39.5 9.86166L20.3333 1.52833C20.1211 1.43392 19.8789 1.43392 19.6667 1.52833L0.5 9.86166C0.196454 9.99414 0.000170631 10.2938 0 10.625V13.125C0 13.5852 0.373096 13.9583 0.833333 13.9583H39.1667C39.6269 13.9583 40 13.5852 40 13.125V10.625C39.9998 10.2938 39.8035 9.99414 39.5 9.86166Z" fill="black"/>
<path d="M28.7507 23.9583H12.084C11.3936 23.9583 10.834 24.5179 10.834 25.2083C10.834 25.8986 11.3936 26.4583 12.084 26.4583H28.7507C29.441 26.4583 30.0007 25.8986 30.0007 25.2083C30.0007 24.5179 29.441 23.9583 28.7507 23.9583V23.9583Z" fill="black"/>
<path d="M28.7507 29.7917H12.084C11.3936 29.7917 10.834 30.3514 10.834 31.0417C10.834 31.7321 11.3936 32.2917 12.084 32.2917H28.7507C29.441 32.2917 30.0007 31.7321 30.0007 31.0417C30.0007 30.3514 29.441 29.7917 28.7507 29.7917Z" fill="black"/>
<path fill-rule="evenodd" clip-rule="evenodd" d="M38.3333 35.2083C39.2538 35.2083 40 35.9544 40 36.8749C40 37.7954 39.2538 38.5416 38.3333 38.5416H1.66667C0.746192 38.5416 0 37.7954 0 36.8749C0 35.9544 0.746192 35.2083 1.66667 35.2083H2.5C2.96024 35.2083 3.33333 34.8352 3.33333 34.3749V17.2916C3.33333 16.8313 3.70643 16.4583 4.16667 16.4583H35.8333C36.2936 16.4583 36.6667 16.8313 36.6667 17.2916V34.3749C36.6667 34.8352 37.0398 35.2083 37.5 35.2083H38.3333ZM10 20.6249C9.07952 20.6249 8.33333 21.3711 8.33333 22.2916V34.3749C8.33333 34.8352 8.70643 35.2083 9.16667 35.2083H31.6667C32.1269 35.2083 32.5 34.8352 32.5 34.3749V22.2916C32.5 21.3711 31.7538 20.6249 30.8333 20.6249H10Z" fill="black"/>
</svg>
