<svg width="40" height="40" viewBox="0 0 40 40" fill="none" xmlns="http://www.w3.org/2000/svg">
<path d="M38.814 4.80829C38.4983 4.4036 38.0138 4.1669 37.5006 4.16663H2.50062C1.98726 4.16664 1.50256 4.40323 1.18673 4.80794C0.870907 5.21265 0.75921 5.74032 0.883956 6.23829L1.71729 10.405C1.90305 11.1465 2.56949 11.6666 3.33396 11.6666H36.6673C37.4318 11.6666 38.0982 11.1465 38.284 10.405L39.1173 6.23829C39.2418 5.74035 39.1299 5.21282 38.814 4.80829Z" fill="black"/>
<path fill-rule="evenodd" clip-rule="evenodd" d="M13.75 26.6666C13.7546 23.2167 16.5501 20.4212 20 20.4166C23.4499 20.4212 26.2454 23.2167 26.25 26.6666V34.035C26.2497 34.3844 26.0314 34.6964 25.7033 34.8166C22.022 36.1727 17.978 36.1727 14.2967 34.8166C13.9686 34.6964 13.7503 34.3844 13.75 34.035V26.6666ZM16.6667 28.3333C16.6667 30.1742 18.159 31.6666 20 31.6666C21.8409 31.6666 23.3333 30.1742 23.3333 28.3333C23.3333 26.4923 21.8409 25 20 25C18.159 25 16.6667 26.4923 16.6667 28.3333Z" fill="black"/>
<path d="M35.268 14.1666H4.73133C4.35598 14.1668 4.02709 14.4179 3.928 14.78C2.12514 21.3249 4.49605 28.3076 9.91133 32.4016C10.1638 32.591 10.5017 32.6215 10.784 32.4803C11.0663 32.3392 11.2447 32.0506 11.2447 31.735V26.6666C11.2447 21.8341 15.1622 17.9166 19.9947 17.9166C24.8272 17.9166 28.7447 21.8341 28.7447 26.6666V31.74C28.7447 32.0556 28.923 32.3442 29.2053 32.4853C29.4876 32.6265 29.8255 32.596 30.078 32.4066C35.4933 28.3126 37.8642 21.3299 36.0613 14.785C35.9651 14.4245 35.641 14.1719 35.268 14.1666Z" fill="black"/>
</svg>
