<svg width="40" height="40" viewBox="0 0 40 40" fill="none" xmlns="http://www.w3.org/2000/svg">
<path d="M7.39475 29.8944C7.08235 29.5821 6.57595 29.5821 6.26355 29.8944L2.39955 33.76C1.6446 34.4309 1.32357 35.4649 1.56579 36.4454C1.808 37.426 2.57358 38.1915 3.5541 38.4337C4.53462 38.676 5.56862 38.3549 6.23955 37.6L10.1083 33.7312C10.4207 33.4188 10.4207 32.9124 10.1083 32.6L7.39475 29.8944Z" fill="black"/>
<path d="M19.4053 23.3072L16.6949 20.5968C16.3825 20.2845 15.8761 20.2845 15.5637 20.5968L9.09165 27.0672C8.77935 27.3796 8.77935 27.886 9.09165 28.1984L11.8021 30.9088C11.9521 31.0592 12.1559 31.1438 12.3685 31.1438C12.581 31.1438 12.7848 31.0592 12.9349 30.9088L19.4053 24.4384C19.7176 24.126 19.7176 23.6196 19.4053 23.3072Z" fill="black"/>
<path fill-rule="evenodd" clip-rule="evenodd" d="M39.0622 9.42241C40.3115 10.672 40.3115 12.6976 39.0622 13.9472L31.6798 21.328C30.9852 22.0223 30.0101 22.3591 29.035 22.2416L22.0798 21.3936C20.26 21.1774 18.8249 19.743 18.6078 17.9232L17.7598 10.968C17.6409 9.99211 17.9772 9.01572 18.6718 8.32001L26.0574 0.94241C27.307 -0.306812 29.3326 -0.306812 30.5822 0.94241L39.0622 9.42241ZM20.905 11.0991C21.0905 11.5472 21.5276 11.8396 22.0126 11.84C22.3317 11.8395 22.6372 11.711 22.8606 11.4832L27.3854 6.96321C27.8542 6.49443 27.8542 5.73439 27.3854 5.26561C26.9167 4.79683 26.1566 4.79683 25.6878 5.26561L21.1646 9.79201C20.8219 10.1352 20.7194 10.651 20.905 11.0991ZM24.0718 17.1328C23.5868 17.1324 23.1497 16.84 22.9642 16.3919C22.7786 15.9438 22.8811 15.428 23.2238 15.0848L31.1422 7.16321C31.4414 6.84216 31.8919 6.71001 32.3171 6.81859C32.7423 6.92718 33.0743 7.25917 33.1829 7.68435C33.2914 8.10952 33.1593 8.56006 32.8382 8.85921L24.9198 16.7808C24.6948 17.0051 24.3895 17.1301 24.0718 17.128V17.1328ZM30.2126 18.84L34.739 14.3168C35.0423 14.0136 35.1607 13.5716 35.0497 13.1573C34.9387 12.7431 34.6152 12.4195 34.2009 12.3085C33.7867 12.1975 33.3447 12.316 33.0414 12.6192L28.5166 17.144C28.0761 17.6168 28.0891 18.3536 28.546 18.8106C29.003 19.2676 29.7398 19.2806 30.2126 18.84Z" fill="black"/>
</svg>
