<svg width="40" height="40" viewBox="0 0 40 40" fill="none" xmlns="http://www.w3.org/2000/svg">
<path d="M12.4993 7.5H27.4993C27.9596 7.5 28.3327 7.1269 28.3327 6.66667V1.66667C28.3327 0.746192 27.5865 0 26.666 0H13.3327C12.4122 0 11.666 0.746192 11.666 1.66667V6.66667C11.666 7.1269 12.0391 7.5 12.4993 7.5Z" fill="black"/>
<path d="M12.5004 40C11.8043 40.0003 11.1814 39.568 10.9381 38.9158C10.6948 38.2636 10.8825 37.529 11.4087 37.0733C11.5837 36.9227 11.6187 36.6652 11.4904 36.4733C11.3754 36.3067 11.2337 36.0983 11.1304 35.9483C10.3807 35.2018 9.98288 34.1722 10.036 33.1155C10.089 32.0589 10.588 31.0743 11.4087 30.4067C11.8589 30.0167 12.4829 29.8964 13.0457 30.0913C13.6086 30.2861 14.0247 30.7664 14.1374 31.3513C14.2501 31.9361 14.0422 32.5367 13.5921 32.9267C13.4171 33.0773 13.382 33.3348 13.5104 33.5267C13.6254 33.6933 13.7671 33.9017 13.8704 34.0517C14.6201 34.7982 15.0179 35.8278 14.9648 36.8845C14.9117 37.9411 14.4128 38.9257 13.5921 39.5933C13.2889 39.8558 12.9013 40.0002 12.5004 40Z" fill="black"/>
<path d="M20.0004 40C19.3043 40.0003 18.6814 39.568 18.4381 38.9158C18.1948 38.2636 18.3825 37.529 18.9087 37.0733C19.0837 36.9227 19.1187 36.6652 18.9904 36.4733C18.8754 36.3067 18.7337 36.0983 18.6304 35.9483C17.8807 35.2018 17.4829 34.1722 17.536 33.1155C17.589 32.0589 18.088 31.0743 18.9087 30.4067C19.6046 29.8038 20.6575 29.8791 21.2604 30.575C21.8633 31.2709 21.7879 32.3238 21.0921 32.9267C20.9171 33.0773 20.882 33.3348 21.0104 33.5267C21.1254 33.6933 21.2671 33.9017 21.3704 34.0517C22.1201 34.7982 22.5179 35.8278 22.4648 36.8845C22.4117 37.9411 21.9128 38.9257 21.0921 39.5933C20.7889 39.8558 20.4013 40.0002 20.0004 40Z" fill="black"/>
<path d="M27.5004 40C26.8043 40.0003 26.1814 39.568 25.9381 38.9158C25.6948 38.2636 25.8825 37.529 26.4087 37.0733C26.5837 36.9227 26.6187 36.6652 26.4904 36.4733C26.3754 36.3067 26.2337 36.0983 26.1304 35.9483C25.3807 35.2018 24.9829 34.1722 25.036 33.1155C25.089 32.0589 25.588 31.0743 26.4087 30.4067C26.8589 30.0167 27.4829 29.8964 28.0457 30.0913C28.6086 30.2861 29.0247 30.7664 29.1374 31.3513C29.2501 31.9361 29.0422 32.5367 28.5921 32.9267C28.4171 33.0773 28.382 33.3348 28.5104 33.5267C28.6254 33.6933 28.7671 33.9017 28.8704 34.0517C29.6201 34.7982 30.0179 35.8278 29.9648 36.8845C29.9117 37.9411 29.4128 38.9257 28.5921 39.5933C28.2889 39.8558 27.9013 40.0002 27.5004 40Z" fill="black"/>
<path fill-rule="evenodd" clip-rule="evenodd" d="M38.545 19.2C39.4693 19.9923 40.0009 21.1493 40 22.3667V26.6667C40 27.5872 39.2538 28.3334 38.3333 28.3334H1.66667C0.746192 28.3334 0 27.5872 0 26.6667V22.3667C0.000406917 21.1493 0.533202 19.993 1.45833 19.2017L11.9583 10.2017C12.1084 10.071 12.301 9.99929 12.5 10H27.5C27.7 9.99802 27.8938 10.0691 28.045 10.2L38.545 19.2ZM4.58333 25.8334H11.1667C11.857 25.8334 12.4167 25.2737 12.4167 24.5834C12.4167 23.893 11.857 23.3334 11.1667 23.3334H4.58333C3.89298 23.3334 3.33333 23.893 3.33333 24.5834C3.33333 25.2737 3.89298 25.8334 4.58333 25.8334ZM27.5 25.8334C26.5795 25.8334 25.8333 25.0872 25.8333 24.1667C25.8333 23.2462 26.5795 22.5 27.5 22.5C28.4205 22.5 29.1667 23.2462 29.1667 24.1667C29.1667 25.0872 28.4205 25.8334 27.5 25.8334ZM31.6667 24.1667C31.6667 25.0872 32.4129 25.8334 33.3333 25.8334C34.2538 25.8334 35 25.0872 35 24.1667C35 23.2462 34.2538 22.5 33.3333 22.5C32.4129 22.5 31.6667 23.2462 31.6667 24.1667Z" fill="black"/>
</svg>
