<svg width="40" height="40" viewBox="0 0 40 40" fill="none" xmlns="http://www.w3.org/2000/svg">
<path d="M20.0007 34.1667C19.0802 34.1667 18.334 34.9129 18.334 35.8333V38.3333C18.334 39.2538 19.0802 40 20.0007 40C20.9211 40 21.6673 39.2538 21.6673 38.3333V35.8333C21.6673 34.9129 20.9211 34.1667 20.0007 34.1667Z" fill="black"/>
<path d="M29.7775 32.7667C29.4798 32.2507 28.9294 31.9328 28.3338 31.9326C27.7381 31.9325 27.1876 32.2502 26.8896 32.766C26.5916 33.2818 26.5915 33.9174 26.8892 34.4333L28.1392 36.6C28.4369 37.116 28.9873 37.4339 29.583 37.434C30.1787 37.4342 30.7292 37.1165 31.0271 36.6007C31.3251 36.0849 31.3253 35.4493 31.0275 34.9333L29.7775 32.7667Z" fill="black"/>
<path d="M12.5 32.1567C12.117 31.9351 11.6617 31.875 11.2344 31.9894C10.807 32.1038 10.4427 32.3834 10.2216 32.7667L8.97164 34.9333C8.75025 35.3165 8.69031 35.772 8.80505 36.1993C8.91979 36.6267 9.19978 36.9909 9.58331 37.2117C9.83656 37.3581 10.1241 37.4345 10.4166 37.4333C11.0127 37.4339 11.5636 37.1162 11.8616 36.6L13.1116 34.4333C13.3325 34.0503 13.3921 33.5953 13.2774 33.1683C13.1627 32.7413 12.883 32.3774 12.5 32.1567Z" fill="black"/>
<path d="M26.0425 12.0833C25.4349 11.8181 25.0422 11.218 25.0425 10.555V9.16667C25.0358 7.2329 23.9095 5.47811 22.1542 4.66667C21.8581 4.5312 21.668 4.23565 21.6675 3.91V1.66667C21.6675 0.746192 20.9214 0 20.0009 0C19.0804 0 18.3342 0.746192 18.3342 1.66667V3.91C18.3343 4.2335 18.1472 4.52783 17.8542 4.665C16.0984 5.4767 14.972 7.2323 14.9659 9.16667V10.555C14.9662 11.218 14.5735 11.8181 13.9659 12.0833C9.17315 13.8294 5.73363 18.0758 5.02088 23.1267C4.9608 23.6019 5.10977 24.0798 5.42921 24.4367C5.74745 24.7937 6.20257 24.9986 6.68088 25H33.3225C33.8032 25.0005 34.2611 24.7955 34.5809 24.4367C34.8986 24.0782 35.0468 23.6003 34.9875 23.125C34.2735 18.0751 30.8344 13.8298 26.0425 12.0833Z" fill="black"/>
<path d="M20.0013 32.0833C23.0268 32.0846 25.9354 30.9152 28.118 28.82C28.4867 28.4673 28.6041 27.926 28.4145 27.4523C28.225 26.9786 27.7665 26.6676 27.2563 26.6667H25.9746C25.6955 26.6674 25.4245 26.7613 25.2046 26.9333C22.1586 29.3556 17.844 29.3556 14.798 26.9333C14.5781 26.7613 14.3072 26.6674 14.028 26.6667H12.7463C12.2352 26.6659 11.7753 26.9767 11.5855 27.4512C11.3956 27.9257 11.5141 28.468 11.8846 28.82C14.067 30.9155 16.9758 32.085 20.0013 32.0833Z" fill="black"/>
</svg>
