<svg width="40" height="40" viewBox="0 0 40 40" fill="none" xmlns="http://www.w3.org/2000/svg">
<path d="M11.4545 20.9998C11.0528 20.5666 10.4579 20.3928 9.89851 20.5453C9.3391 20.6979 8.90223 21.1529 8.7558 21.7356C8.60938 22.3184 8.77619 22.938 9.19212 23.3565L9.75692 23.9448C10.0692 24.2702 10.0692 24.7977 9.75692 25.1232L0.93932 34.3115C0.0257619 35.2647 -0.247259 36.697 0.247367 37.9416C0.741993 39.1861 1.90705 39.9982 3.20012 39.9998V39.9998C4.05009 40.0026 4.86563 39.6502 5.46412 39.0215L14.2801 29.8382C14.5925 29.5128 15.0989 29.5128 15.4113 29.8382L15.9761 30.4265C16.3803 30.8478 16.9695 31.0125 17.5218 30.8585C18.0741 30.7046 18.5056 30.2554 18.6538 29.6802C18.8019 29.105 18.6443 28.4911 18.2401 28.0698L11.4545 20.9998Z" fill="black"/>
<path d="M32.6943 10.3166C32.7615 10.3166 32.8271 10.3166 32.8943 10.3166C33.6912 10.2546 34.4228 9.83492 34.8991 9.16658V9.16658L38.0479 4.77825C38.5733 4.04282 38.5054 3.01813 37.8879 2.36492L36.1311 0.541582C35.5233 -0.0900899 34.5685 -0.177826 33.8639 0.333249L29.5439 3.45825C28.8739 3.94174 28.4453 4.71078 28.3743 5.55658C28.3425 5.94286 28.3889 6.33178 28.5103 6.69825C28.6087 6.99909 28.5342 7.33202 28.3183 7.55658L16.1439 20.2232C15.676 20.7113 15.676 21.5019 16.1439 21.9899L17.2767 23.1699C17.5018 23.4045 17.8071 23.5363 18.1255 23.5363C18.4439 23.5363 18.7492 23.4045 18.9743 23.1699L31.2143 10.4332C31.4188 10.2175 31.7197 10.1346 31.9999 10.2166C32.2261 10.2819 32.4596 10.3155 32.6943 10.3166Z" fill="black"/>
<path d="M29.135 25.2548C28.8583 25.3323 28.5629 25.2496 28.3606 25.0381L24.7766 21.3048C24.4588 20.9935 23.9632 20.9935 23.6454 21.3048L20.2518 24.8331C19.9395 25.1586 19.9395 25.6861 20.2518 26.0115L23.8358 29.7465C24.0383 29.9575 24.117 30.2651 24.0422 30.5531C23.3822 33.1408 24.0946 35.8988 25.9121 37.792C27.7296 39.6852 30.3773 40.4273 32.8614 39.7398C33.138 39.6633 33.3543 39.4386 33.4286 39.1507C33.5029 38.8628 33.4239 38.5555 33.2214 38.3448L30.8214 35.8548C30.6934 35.7197 30.6128 35.5435 30.5926 35.3548L30.3094 32.7031C30.2826 32.4513 30.3672 32.2004 30.5394 32.0214C30.7115 31.8424 30.9525 31.7547 31.1942 31.7831L33.7382 32.0781C33.9196 32.0982 34.089 32.1823 34.2182 32.3165L36.6182 34.8165C36.8205 35.0265 37.115 35.1083 37.3909 35.0309C37.6667 34.9536 37.882 34.7289 37.9558 34.4415C38.6222 31.8529 37.912 29.0906 36.0927 27.1956C34.2734 25.3005 31.6216 24.5606 29.1366 25.2548H29.135Z" fill="black"/>
<path d="M9.06508 14.9565C9.34183 14.8791 9.63723 14.9617 9.83948 15.1732L13.4235 18.9065C13.7359 19.2318 14.2423 19.2318 14.5547 18.9065L17.9483 15.3715C18.2606 15.0461 18.2606 14.5186 17.9483 14.1932L14.3643 10.4582C14.1618 10.2472 14.0831 9.93951 14.1579 9.65152C14.8246 7.06259 14.1141 4.29984 12.2944 2.40464C10.4747 0.509442 7.82234 -0.230066 5.33708 0.464857C5.06112 0.54171 4.84543 0.766007 4.77119 1.05334C4.69695 1.34067 4.77543 1.64744 4.97708 1.85819L7.36908 4.35819C7.49843 4.49257 7.57974 4.66901 7.59948 4.85819L7.88108 7.49986C7.90782 7.75137 7.8234 8.00191 7.65162 8.18084C7.47985 8.35978 7.23933 8.44771 6.99788 8.41986L4.45228 8.12486C4.27087 8.10475 4.10151 8.02065 3.97228 7.88652L1.58348 5.39486C1.38115 5.1848 1.08666 5.10306 0.810821 5.18039C0.534982 5.25772 0.319657 5.4824 0.245878 5.76986C-0.420527 8.35843 0.289725 11.1207 2.109 13.0158C3.92827 14.9108 6.58004 15.6507 9.06508 14.9565V14.9565Z" fill="black"/>
</svg>
